<svg xmlns="http://www.w3.org/2000/svg" viewBox="0 0 49.37 57.47"><defs><style>.cls-1{fill:#2eb4b6;}.cls-2{fill:#fff;}</style></defs><g id="Layer_2" data-name="Layer 2"><g id="Layer_2-2" data-name="Layer 2"><path class="cls-1" d="M25.18,57A24.19,24.19,0,1,1,49.37,32.78,24.22,24.22,0,0,1,25.18,57Zm-.66-34.84A14.28,14.28,0,1,0,38.8,36.4,14.29,14.29,0,0,0,24.52,22.13Z" transform="translate(-0.5)"/><path d="M25.18,9.09A23.69,23.69,0,1,1,1.5,32.78,23.71,23.71,0,0,1,25.18,9.09m-.66,42.09A14.78,14.78,0,1,0,9.74,36.4,14.8,14.8,0,0,0,24.52,51.18m.66-43.09A24.69,24.69,0,1,0,49.87,32.78,24.69,24.69,0,0,0,25.18,8.09Zm-.66,42.09A13.78,13.78,0,1,1,38.3,36.4,13.78,13.78,0,0,1,24.52,50.18Z" transform="translate(-0.5)"/><path class="cls-2" d="M28.87,12.71c-3,0-5.45-2.74-5.45-6.1S25.87.5,28.87.5s5.44,2.74,5.44,6.11S31.87,12.71,28.87,12.71Z" transform="translate(-0.5)"/><path d="M28.87,1c2.72,0,4.94,2.51,4.94,5.61s-2.22,5.6-4.94,5.6-4.95-2.51-4.95-5.6S26.14,1,28.87,1m0-1c-3.29,0-5.95,3-5.95,6.61s2.66,6.6,5.95,6.6,5.94-3,5.94-6.6S32.15,0,28.87,0Z" transform="translate(-0.5)"/><path d="M30.93,10.37a3.18,3.18,0,0,1-3-2.61l1.77-.6,1-.31-1-.23a1.22,1.22,0,0,1-.73-.57,3.13,3.13,0,0,0-.75-.77,3.09,3.09,0,0,1,2.74-1.86A3.31,3.31,0,0,1,34,6.9,3.3,3.3,0,0,1,30.93,10.37Z" transform="translate(-0.5)"/><path d="M30.93,3.71A3,3,0,0,1,33.75,6.9a3,3,0,0,1-2.82,3.19,2.85,2.85,0,0,1-2.65-2.15c1.08-.37,1.5-.5,1.5-.5l2-.64-2-.46c-.25-.06-.34-.16-.57-.46a4,4,0,0,0-.62-.68,2.77,2.77,0,0,1,2.38-1.49m0-.57a3.4,3.4,0,0,0-3.09,2.24c1,.61.91,1.31,1.77,1.51l-2,.68a3.49,3.49,0,0,0,3.32,3.09A3.59,3.59,0,0,0,34.32,6.9a3.59,3.59,0,0,0-3.39-3.76Z" transform="translate(-0.5)"/><path class="cls-2" d="M20.51,12.71c-3,0-5.44-2.74-5.44-6.1S17.51.5,20.51.5,26,3.24,26,6.61,23.51,12.71,20.51,12.71Z" transform="translate(-0.5)"/><path d="M20.51,1c2.73,0,4.95,2.51,4.95,5.61s-2.22,5.6-4.95,5.6-4.94-2.51-4.94-5.6S17.78,1,20.51,1m0-1c-3.28,0-5.94,3-5.94,6.61s2.66,6.6,5.94,6.6,5.95-3,5.95-6.6S23.79,0,20.51,0Z" transform="translate(-0.5)"/><path d="M22.58,10.37a3.17,3.17,0,0,1-3-2.61l1.76-.6,1-.31-1-.23a1.2,1.2,0,0,1-.72-.57,3.55,3.55,0,0,0-.75-.77,3.07,3.07,0,0,1,2.74-1.86,3.31,3.31,0,0,1,3.1,3.48A3.3,3.3,0,0,1,22.58,10.37Z" transform="translate(-0.5)"/><path d="M22.58,3.71A3,3,0,0,1,25.4,6.9a3,3,0,0,1-2.82,3.19,2.85,2.85,0,0,1-2.66-2.15c1.08-.37,1.5-.5,1.51-.5l1.95-.64-2-.46c-.25-.06-.34-.16-.57-.46a3.9,3.9,0,0,0-.61-.68,2.76,2.76,0,0,1,2.38-1.49m0-.57a3.4,3.4,0,0,0-3.1,2.24c1,.61.91,1.31,1.77,1.51l-2,.68a3.49,3.49,0,0,0,3.33,3.09A3.59,3.59,0,0,0,26,6.9a3.59,3.59,0,0,0-3.39-3.76Z" transform="translate(-0.5)"/><path d="M25.22,19.23A7.18,7.18,0,0,1,21.33,18l.47-.73a5.47,5.47,0,0,0,6.52,0l.52.69A5.89,5.89,0,0,1,25.22,19.23Z" transform="translate(-0.5)"/><path d="M20.81,18.07a2.8,2.8,0,0,1-1.07-.25l.35-.79a1.35,1.35,0,0,0,1.07.11,1.76,1.76,0,0,0,.85-1l.79.34a2.54,2.54,0,0,1-1.32,1.49A1.7,1.7,0,0,1,20.81,18.07Z" transform="translate(-0.5)"/><path d="M28.93,18.07a1.74,1.74,0,0,1-.67-.13,2.57,2.57,0,0,1-1.32-1.49l.8-.34a1.75,1.75,0,0,0,.84,1A1.35,1.35,0,0,0,29.65,17l.35.79A2.76,2.76,0,0,1,28.93,18.07Z" transform="translate(-0.5)"/></g></g></svg>